<svg width="1485" height="194" viewBox="0 0 1485 194" fill="none" xmlns="http://www.w3.org/2000/svg">
<path d="M939.5 6H896.5L898.5 139C898.5 139 902.197 148.443 905.5 154C908.853 159.64 910.859 162.862 915.5 167.5C920.75 172.747 924.406 175.093 931 178.5C936.381 181.28 939.671 182.357 945.5 184C951.804 185.777 962 187 962 187C962 187 973.683 188.23 981 187C985.243 186.287 987.618 185.483 991.579 184.142L992 184C997.222 182.234 1000.19 181.185 1005 178.5C1011.21 175.038 1014.72 172.758 1019.5 167.5C1021.65 165.131 1022.61 163.587 1024.5 161C1026.32 158.506 1027.32 157.092 1029 154.5C1030.86 151.633 1033.5 147 1033.5 147L1037.5 139L1039.5 6H995.5V129C995.5 129 994.839 135.99 992 139C989.603 141.541 984 143 984 143C984 143 965.059 146.866 954 143C950.537 141.789 948.3 141.37 945.5 139C942.024 136.058 939.5 129 939.5 129V6Z" fill="black" stroke="#014B5B"/>
<path d="M1167 186.5H1123V8H1149L1223 89.5V8H1270V186.5H1250L1167 98.5V186.5Z" fill="black" stroke="#014B5B"/>
<path d="M731.5 8H687V186.5H731.5V129L745.5 116.5L798.5 186.5H849.5L777.5 81.5L849.5 8H794.5L731.5 62.5V8Z" fill="#034E5E" stroke="#014B5B"/>
<path d="M656.5 186V146H606L572 186H656.5Z" fill="#034E5E" stroke="#014B5B"/>
<path d="M571.5 6V46H622L656 6H571.5Z" fill="black" stroke="#014B5B"/>
<path d="M553 1L472.5 192.5L392 1H438.5L472.5 92L502 1H553Z" fill="black" stroke="#014B5B"/>
<path d="M347 9H209.5V185.5H347V148.5H253.5V116.5H324V80.5H253.5V49H347V9Z" fill="#034E5E" stroke="#014B5B"/>
<path fill-rule="evenodd" clip-rule="evenodd" d="M0 9V184H70.2544C70.2544 184 77.4187 183.651 81 183C92 181 97.8706 179.713 107 174C116.609 167.987 121.359 163.303 128.5 154.5C130.788 151.679 132.297 149.406 134 146C136 142 138.5 135.5 138.5 135.5C138.5 135.5 142.043 124.991 143 118C144.126 109.778 144.202 105.513 144 97.5C143.867 92.2151 143.676 89.2432 143 84C142.315 78.6822 140.5 70.5 140.5 70.5L135.5 56.5C135.5 56.5 131.325 48.6207 128 44C120.334 33.3482 114.54 28.0952 103.5 21C95.3429 15.7575 83 11 81 10.5C80.8783 10.4696 80.7584 10.4391 80.639 10.4088C78.7962 9.94098 77.0591 9.49999 70.2544 9.49999C44 9.50001 0 9 0 9ZM47.5 46V145H73.8446C73.8446 145 76.5312 144.803 77.8741 144.434C81.999 143.303 84.2004 142.575 87.6238 139.343C91.2271 135.941 93.0084 133.292 95.6861 128.311C96.5441 126.716 97.1099 125.43 97.7485 123.503C98.4985 121.24 99.436 117.563 99.436 117.563C99.436 117.563 100.764 111.618 101.123 107.663C101.546 103.011 101.498 96.0657 101.498 96.0657L101.123 88.4286C101.123 88.4286 100.703 83.7228 100.186 80.7914C99.6265 77.6174 99.2436 75.8391 98.311 72.8714C97.3965 69.9614 96.7739 68.3827 95.4986 65.8C92.5807 59.8906 89.3113 56.1829 86.3114 52.7886C83.3115 49.3943 77.8741 46.8486 77.8741 46.8486C77.8285 46.8314 77.7835 46.8141 77.7388 46.797C77.0477 46.5323 76.3963 46.2829 73.8446 46.2829C63.9995 46.2829 47.5 46 47.5 46Z" fill="#01475D"/>
<path fill-rule="evenodd" clip-rule="evenodd" d="M1340.5 9V184H1410.75C1410.75 184 1417.92 183.651 1421.5 183C1432.5 181 1438.37 179.713 1447.5 174C1457.11 167.987 1461.86 163.303 1469 154.5C1471.29 151.679 1472.8 149.406 1474.5 146C1476.5 142 1479 135.5 1479 135.5C1479 135.5 1482.54 124.991 1483.5 118C1484.63 109.778 1484.7 105.513 1484.5 97.5C1484.37 92.2151 1484.18 89.2432 1483.5 84C1482.81 78.6822 1481 70.5 1481 70.5L1476 56.5C1476 56.5 1471.83 48.6207 1468.5 44C1460.83 33.3482 1455.04 28.0952 1444 21C1435.84 15.7575 1423.5 11 1421.5 10.5C1421.38 10.4696 1421.26 10.4391 1421.14 10.4088C1419.3 9.94098 1417.56 9.49999 1410.75 9.49999C1384.5 9.50001 1340.5 9 1340.5 9ZM1388 46V145H1414.34C1414.34 145 1417.03 144.803 1418.37 144.434C1422.5 143.303 1424.7 142.575 1428.12 139.343C1431.73 135.941 1433.51 133.292 1436.19 128.311C1437.04 126.716 1437.61 125.43 1438.25 123.503C1439 121.24 1439.94 117.563 1439.94 117.563C1439.94 117.563 1441.26 111.618 1441.62 107.663C1442.05 103.011 1442 96.0657 1442 96.0657L1441.62 88.4286C1441.62 88.4286 1441.2 83.7228 1440.69 80.7914C1440.13 77.6174 1439.74 75.8391 1438.81 72.8714C1437.9 69.9614 1437.27 68.3827 1436 65.8C1433.08 59.8906 1429.81 56.1829 1426.81 52.7886C1423.81 49.3943 1418.37 46.8486 1418.37 46.8486C1418.33 46.8314 1418.28 46.8141 1418.24 46.797C1417.55 46.5323 1416.9 46.2829 1414.34 46.2829C1404.5 46.2829 1388 46 1388 46Z" fill="black"/>
</svg>
