<svg width="518" height="140" viewBox="0 0 518 140" fill="none" xmlns="http://www.w3.org/2000/svg">
<path fill-rule="evenodd" clip-rule="evenodd" d="M105.935 111.021C124.314 107.901 138.322 100.962 138.322 85.0249C138.322 42.7099 94.1461 38.1337 24.9566 37.8248C-1.00055 37.7089 -10.3867 19.8246 14.7316 13.2779C145.915 -20.9132 579.227 13.7384 509.92 85.0249C457.466 138.977 245.055 142.186 118.241 138.091C78.5517 136.809 66.785 117.668 105.935 111.021ZM143.306 75.9784L143.024 77.4784C141.837 84.1971 142.712 89.5409 145.649 93.5096C148.587 97.4471 153.368 99.4159 159.993 99.4159C164.774 99.4159 168.774 98.5253 171.993 96.744C173.894 95.6836 175.534 94.4895 176.911 93.1618C178.44 91.6877 177.832 89.2665 175.962 88.2605V88.2605C174.403 87.4222 172.494 87.8778 171.154 89.0327C170.255 89.8066 169.254 90.4864 168.149 91.0721C166.118 92.1346 163.759 92.6659 161.071 92.6659C157.196 92.6659 154.462 91.2909 152.868 88.5409C151.918 86.8694 151.407 84.8573 151.335 82.5047C151.259 80.0371 153.45 78.2284 155.918 78.2284H179.133C180.768 78.2284 182.157 77.0325 182.399 75.4159V75.4159C183.587 68.6971 182.899 63.4784 180.337 59.7596C177.774 56.0409 173.446 54.1815 167.352 54.1815C161.227 54.1815 155.977 56.1815 151.602 60.1815C147.227 64.1503 144.462 69.4159 143.306 75.9784ZM155.63 66.5585C153.698 69.2958 156.127 72.6034 159.477 72.6034H173.911C174.076 72.6034 174.216 72.4844 174.243 72.3221V72.3221C174.774 69.3221 174.462 66.6659 173.306 64.3534C172.181 62.0409 169.79 60.8846 166.134 60.8846C162.384 60.8846 159.306 62.244 156.899 64.9628C156.448 65.4667 156.025 65.9986 155.63 66.5585ZM197.002 58.673C196.635 56.6946 194.909 55.2596 192.896 55.2596V55.2596C190.242 55.2596 188.261 57.7042 188.812 60.301L196.044 94.4214C196.533 96.7319 198.573 98.3846 200.935 98.3846H202.63C204.437 98.3846 206.104 97.4095 206.989 95.8342L226.703 60.7535C228.084 58.2955 226.308 55.2596 223.488 55.2596V55.2596C222.142 55.2596 220.903 55.993 220.256 57.1729L205.509 84.0409C204.977 85.0721 204.446 86.0721 203.915 87.0409C203.437 87.9661 203.074 88.6775 202.824 89.1751C202.803 89.2175 202.76 89.244 202.713 89.244V89.244C202.65 89.244 202.597 89.1972 202.588 89.1348C202.522 88.6414 202.402 87.959 202.227 87.0878C202.071 86.119 201.899 85.1034 201.712 84.0409L197.002 58.673ZM224.684 91.9316C224.192 92.4725 223.864 93.142 223.738 93.8623V93.8623C223.325 96.2227 225.141 98.3846 227.537 98.3846H254.532C256.165 98.3846 257.563 97.216 257.854 95.6093V95.6093C258.227 93.5388 256.636 91.6346 254.532 91.6346H246.428C242.089 91.6346 239.81 86.4857 242.727 83.2732L262.166 61.8668C262.666 61.3169 263 60.6374 263.131 59.9063V59.9063C263.564 57.4843 261.702 55.2596 259.241 55.2596H233.945C232.274 55.2596 230.843 56.4591 230.552 58.1049V58.1049C230.179 60.215 231.802 62.1503 233.945 62.1503H240.467C244.808 62.1503 247.087 67.3033 244.166 70.5148L224.684 91.9316ZM278.88 29.9471C276.786 29.9471 274.993 31.4507 274.629 33.5135L264.065 93.2895C263.596 95.9473 265.64 98.3846 268.339 98.3846V98.3846C270.444 98.3846 272.245 96.8745 272.612 94.802L274.297 85.2977C274.495 84.1806 275.075 83.1566 275.927 82.4076V82.4076C278.371 80.2592 282.214 80.9527 283.704 83.845L289.963 95.9921C290.72 97.4614 292.235 98.3846 293.888 98.3846V98.3846C297.216 98.3846 299.348 94.8412 297.788 91.9009L289.251 75.811C288.166 73.7652 288.627 71.2418 290.367 69.7126L299.981 61.2597C302.354 59.1732 300.879 55.2596 297.719 55.2596V55.2596C296.869 55.2596 296.051 55.5749 295.421 56.1443L287.185 63.589C283.655 66.7807 278.083 63.7005 278.908 59.0131L283.133 35.0133C283.598 32.37 281.564 29.9471 278.88 29.9471V29.9471ZM316.539 55.2596C314.434 55.2596 312.633 56.7712 312.269 58.8442L307.884 83.7596C306.884 89.3534 307.431 93.3534 309.524 95.7596C311.618 98.1659 314.806 99.369 319.087 99.369C322.212 99.369 325.071 98.7284 327.665 97.4471C330.286 96.1679 332.502 94.3746 334.313 92.0674C334.318 92.0605 334.326 92.0565 334.335 92.0565V92.0565C334.352 92.0565 334.366 92.072 334.363 92.0892L333.876 95.2206C333.617 96.8833 334.903 98.3846 336.586 98.3846H338.32C340.372 98.3846 342.128 96.9111 342.483 94.8902L348.565 60.3529C349.033 57.6955 346.989 55.2596 344.29 55.2596V55.2596C342.184 55.2596 340.382 56.7713 340.016 58.8451L335.579 83.9636C335.46 84.6331 335.213 85.2762 334.813 85.8262C333.502 87.6306 331.978 89.1292 330.243 90.3221C328.243 91.6971 326.071 92.3846 323.727 92.3846C321.009 92.3846 319.009 91.7128 317.727 90.369C316.477 88.994 316.165 86.5409 316.79 83.0096L320.808 60.353C321.28 57.6967 319.237 55.2596 316.539 55.2596V55.2596ZM363.105 55.2596C361.043 55.2596 359.279 56.74 358.922 58.7702L352.843 93.2914C352.375 95.9488 354.42 98.3846 357.118 98.3846V98.3846C359.224 98.3846 361.026 96.873 361.392 94.7992L365.843 69.6026C365.953 68.9837 366.171 68.3864 366.527 67.8682C367.778 66.0451 369.293 64.5454 371.071 63.369C373.134 62.0253 375.337 61.3534 377.681 61.3534C380.399 61.3534 382.384 62.1034 383.634 63.6034C384.884 65.0721 385.196 67.5721 384.571 71.1034L380.644 93.2923C380.174 95.9484 382.217 98.3846 384.915 98.3846V98.3846C387.02 98.3846 388.821 96.8722 389.186 94.7985L393.571 69.8378C394.54 64.244 393.977 60.2596 391.884 57.8846C389.79 55.4784 386.618 54.2753 382.368 54.2753C379.212 54.2753 376.306 54.8846 373.649 56.1034C371.029 57.3202 368.86 59.0976 367.142 61.4358C367.137 61.4429 367.128 61.4471 367.12 61.4471V61.4471C367.102 61.4471 367.089 61.4317 367.092 61.4148L367.602 58.3534C367.872 56.7339 366.624 55.2596 364.982 55.2596H363.105ZM399.524 76.0253L399.243 77.5253C398.149 83.8065 398.806 89.0096 401.212 93.1346C403.618 97.2596 407.587 99.3221 413.118 99.3221C416.368 99.3221 419.274 98.619 421.837 97.2128C424.426 95.809 426.533 94.1249 428.156 92.1606C428.162 92.154 428.17 92.1503 428.178 92.1503V92.1503C428.196 92.1503 428.209 92.166 428.206 92.1833L427.696 95.2675C427.426 96.8999 428.685 98.3846 430.34 98.3846H432.084C434.101 98.3846 435.827 96.9368 436.179 94.9502L446.779 35.0044C447.241 32.3909 445.231 29.994 442.577 29.994V29.994C440.505 29.994 438.732 31.4828 438.374 33.5238L434.797 53.9098C434.433 55.9829 430.979 56.8684 429.102 55.9159V55.9159C427.04 54.8534 424.368 54.3221 421.087 54.3221C415.712 54.3221 411.04 56.369 407.071 60.4628C403.134 64.5565 400.618 69.744 399.524 76.0253ZM409.04 88.3534C407.696 85.5096 407.415 81.8846 408.196 77.4784L408.431 76.119C409.212 71.7128 410.774 68.119 413.118 65.3378C415.462 62.5253 418.618 61.119 422.587 61.119C425.243 61.119 427.384 61.7753 429.009 63.0878C430.359 64.132 431.314 65.3735 431.875 66.8122C432.129 67.4636 432.134 68.178 432.014 68.8667L429.311 84.3322C429.204 84.9451 428.992 85.5381 428.635 86.0482C427.524 87.6387 426.055 89.079 424.227 90.369C422.102 91.8378 419.712 92.5721 417.056 92.5721C413.087 92.5721 410.415 91.1659 409.04 88.3534Z" fill="url(#paint0_linear_1_9)"/>
<defs>
<linearGradient id="paint0_linear_1_9" x1="44.8125" y1="-0.289023" x2="44.8125" y2="139.417" gradientUnits="userSpaceOnUse">
<stop stop-color="#09254F"/>
<stop offset="1" stop-color="#60045C"/>
</linearGradient>
</defs>
</svg>
